<svg xmlns="http://www.w3.org/2000/svg" viewBox="0 0 204.7 217.49"><defs><style>.cls-1,.cls-3{fill:#394149;}.cls-2{fill:#02a99e;}.cls-3{font-size:88px;font-family:Mitr-Medium, Mitr;font-weight:500;}.cls-4{letter-spacing:-0.04em;}</style></defs><g id="Capa_2" data-name="Capa 2"><g id="Capa_1-2" data-name="Capa 1"><path class="cls-1" d="M40.06,55.9c0-10.11,0-20.22,0-30.33.05-10.85,5.84-19.76,15.16-23.51A25.51,25.51,0,0,1,83.52,8.55C105.34,32.63,127,56.86,148.75,81c3.58,4,2.42,8.48,1.34,12.63-4.59,17.59-27.34,23.86-40.74,11.17C98.51,94.52,89.21,82.79,79,71.92c-1.83-1.94-3.46-6.17-7-3.24s.34,5.25,2.06,7.29c4.17,4.93,8.49,9.76,13,14.43,1.76,1.85,1.93,3.42,1,5.71-4.17,10.68-16.13,17.38-27.78,15.39A24.82,24.82,0,0,1,40.1,87.73c-.09-10.61,0-21.22,0-31.83Z"/><path class="cls-2" d="M150,72.61q-10.78-11.94-21.53-23.82c-8-8.87-15.88-17.84-24-26.59-2.09-2.25-2.66-4.14-1.42-7,4.66-10.71,16.41-17,27.65-14.75,11.85,2.44,20,12,20.1,23.79.12,15.09.07,30.18.06,45.28C150.81,70.45,151.2,71.5,150,72.61Z"/><text/><text class="cls-3" transform="translate(0 181.85)">N<tspan class="cls-4" x="61.51" y="0">O</tspan><tspan x="124.34" y="0">TI</tspan></text></g></g></svg>